<mxfile host="app.diagrams.net" modified="2022-04-30T07:01:07.410Z" agent="5.0 (Windows NT 10.0; Win64; x64) AppleWebKit/537.36 (KHTML, like Gecko) Chrome/100.0.4896.127 Safari/537.36 Edg/100.0.1185.50" etag="UMFj0FuIqilqfDPLueyF" version="17.5.0" type="github">
  <diagram id="SZOlwMz1GOfJCztETyje" name="Page-1">
    <mxGraphModel dx="1422" dy="754" grid="1" gridSize="10" guides="1" tooltips="1" connect="1" arrows="1" fold="1" page="1" pageScale="1" pageWidth="827" pageHeight="1169" math="0" shadow="0">
      <root>
        <mxCell id="0" />
        <mxCell id="1" parent="0" />
        <mxCell id="RTkJ-Szs8froMl6J9AGJ-14" value="" style="html=1;shadow=0;dashed=0;shape=mxgraph.bootstrap.rrect;rSize=5;strokeColor=#CED4DA;html=1;whiteSpace=wrap;fillColor=#FFFFFF;fontColor=#7D868C;align=left;spacing=15;spacingLeft=40;fontSize=14;comic=0;strokeWidth=3;" vertex="1" parent="1">
          <mxGeometry x="170" y="700" width="800" height="40" as="geometry" />
        </mxCell>
        <mxCell id="RTkJ-Szs8froMl6J9AGJ-15" value="Button" style="html=1;shadow=0;dashed=0;shape=mxgraph.bootstrap.leftButton;strokeColor=#6C757D;gradientColor=inherit;fontColor=inherit;fillColor=inherit;rSize=5;perimeter=none;whiteSpace=wrap;resizeHeight=1;fontSize=14;comic=0;" vertex="1" parent="RTkJ-Szs8froMl6J9AGJ-14">
          <mxGeometry width="70" height="40" relative="1" as="geometry" />
        </mxCell>
        <mxCell id="RTkJ-Szs8froMl6J9AGJ-16" value="Button" style="html=1;shadow=0;dashed=0;strokeColor=#6C757D;gradientColor=inherit;fontColor=inherit;fillColor=inherit;perimeter=none;whiteSpace=wrap;resizeHeight=1;fontSize=14;comic=0;" vertex="1" parent="RTkJ-Szs8froMl6J9AGJ-14">
          <mxGeometry width="70" height="40" relative="1" as="geometry">
            <mxPoint x="70" as="offset" />
          </mxGeometry>
        </mxCell>
        <mxCell id="RTkJ-Szs8froMl6J9AGJ-19" value="Button" style="html=1;shadow=0;dashed=0;strokeColor=#6C757D;gradientColor=inherit;fontColor=inherit;fillColor=inherit;perimeter=none;whiteSpace=wrap;resizeHeight=1;fontSize=14;comic=0;" vertex="1" parent="RTkJ-Szs8froMl6J9AGJ-14">
          <mxGeometry x="140" width="70" height="40" as="geometry" />
        </mxCell>
        <mxCell id="RTkJ-Szs8froMl6J9AGJ-20" value="Button" style="html=1;shadow=0;dashed=0;strokeColor=#6C757D;gradientColor=inherit;fontColor=inherit;fillColor=inherit;perimeter=none;whiteSpace=wrap;resizeHeight=1;fontSize=14;comic=0;" vertex="1" parent="RTkJ-Szs8froMl6J9AGJ-14">
          <mxGeometry x="210" width="70" height="40" as="geometry" />
        </mxCell>
        <mxCell id="RTkJ-Szs8froMl6J9AGJ-21" value="Button" style="html=1;shadow=0;dashed=0;strokeColor=#6C757D;gradientColor=inherit;fontColor=inherit;fillColor=inherit;perimeter=none;whiteSpace=wrap;resizeHeight=1;fontSize=14;comic=0;" vertex="1" parent="RTkJ-Szs8froMl6J9AGJ-14">
          <mxGeometry x="280" width="70" height="40" as="geometry" />
        </mxCell>
        <mxCell id="RTkJ-Szs8froMl6J9AGJ-22" value="" style="strokeWidth=1;shadow=0;dashed=0;align=center;html=1;shape=mxgraph.mockup.rrect;rSize=10;fillColor=#ffffff;strokeColor=#666666;comic=0;" vertex="1" parent="1">
          <mxGeometry x="110" y="900" width="1046" height="50" as="geometry" />
        </mxCell>
        <mxCell id="RTkJ-Szs8froMl6J9AGJ-23" value="Button 2" style="strokeColor=inherit;fillColor=inherit;gradientColor=inherit;strokeWidth=1;shadow=0;dashed=0;align=center;html=1;shape=mxgraph.mockup.rrect;rSize=0;fontSize=17;fontColor=#666666;fontStyle=1;resizeHeight=1;comic=0;" vertex="1" parent="RTkJ-Szs8froMl6J9AGJ-22">
          <mxGeometry width="125" height="50" relative="1" as="geometry">
            <mxPoint x="125" as="offset" />
          </mxGeometry>
        </mxCell>
        <mxCell id="RTkJ-Szs8froMl6J9AGJ-24" value="Button 3" style="strokeColor=inherit;fillColor=inherit;gradientColor=inherit;strokeWidth=1;shadow=0;dashed=0;align=center;html=1;shape=mxgraph.mockup.rrect;rSize=0;fontSize=17;fontColor=#666666;fontStyle=1;resizeHeight=1;comic=0;" vertex="1" parent="RTkJ-Szs8froMl6J9AGJ-22">
          <mxGeometry width="125" height="50" relative="1" as="geometry">
            <mxPoint x="250" as="offset" />
          </mxGeometry>
        </mxCell>
        <mxCell id="RTkJ-Szs8froMl6J9AGJ-25" value="Button 4" style="strokeColor=inherit;fillColor=inherit;gradientColor=inherit;strokeWidth=1;shadow=0;dashed=0;align=center;html=1;shape=mxgraph.mockup.rightButton;rSize=10;fontSize=17;fontColor=#666666;fontStyle=1;resizeHeight=1;comic=0;" vertex="1" parent="RTkJ-Szs8froMl6J9AGJ-22">
          <mxGeometry x="1" width="125" height="50" relative="1" as="geometry">
            <mxPoint x="-125" as="offset" />
          </mxGeometry>
        </mxCell>
        <mxCell id="RTkJ-Szs8froMl6J9AGJ-26" value="æ ˆ" style="strokeWidth=1;shadow=0;dashed=0;align=center;html=1;shape=mxgraph.mockup.leftButton;rSize=10;fontSize=17;fontColor=#ffffff;fontStyle=1;fillColor=#008cff;strokeColor=#008cff;resizeHeight=1;comic=0;" vertex="1" parent="RTkJ-Szs8froMl6J9AGJ-22">
          <mxGeometry width="125" height="50" relative="1" as="geometry" />
        </mxCell>
        <mxCell id="RTkJ-Szs8froMl6J9AGJ-32" value="Button 3" style="strokeColor=inherit;fillColor=inherit;gradientColor=inherit;strokeWidth=1;shadow=0;dashed=0;align=center;html=1;shape=mxgraph.mockup.rrect;rSize=0;fontSize=17;fontColor=#666666;fontStyle=1;resizeHeight=1;comic=0;" vertex="1" parent="RTkJ-Szs8froMl6J9AGJ-22">
          <mxGeometry x="370" width="125" height="50" as="geometry" />
        </mxCell>
        <mxCell id="RTkJ-Szs8froMl6J9AGJ-33" value="Button 3" style="strokeColor=inherit;fillColor=inherit;gradientColor=inherit;strokeWidth=1;shadow=0;dashed=0;align=center;html=1;shape=mxgraph.mockup.rrect;rSize=0;fontSize=17;fontColor=#666666;fontStyle=1;resizeHeight=1;comic=0;" vertex="1" parent="RTkJ-Szs8froMl6J9AGJ-22">
          <mxGeometry x="495" width="125" height="50" as="geometry" />
        </mxCell>
      </root>
    </mxGraphModel>
  </diagram>
</mxfile>
